<svg id="svg" version="1.1" xmlns="http://www.w3.org/2000/svg" xmlns:xlink="http://www.w3.org/1999/xlink" width="400" height="400" viewBox="0, 0, 400,400"><g id="svgg"><path id="path0" d="M186.485 91.831 C 167.376 93.538,146.738 104.398,129.068 122.044 C 78.247 172.797,85.587 254.994,144.379 293.494 C 171.765 311.428,208.380 315.395,238.220 303.660 C 242.406 302.014,256.041 295.364,255.776 295.098 C 255.712 295.035,254.255 295.322,252.537 295.736 C 223.801 302.655,193.070 297.764,172.852 283.054 C 170.918 281.647,166.787 279.190,163.672 277.594 C 149.615 270.393,138.754 260.739,129.773 247.461 C 90.794 189.838,133.566 98.145,202.148 92.302 L 205.664 92.003 202.930 91.753 C 199.162 91.409,190.764 91.449,186.485 91.831 M194.010 115.495 C 193.525 115.980,193.747 117.493,194.336 117.719 C 195.655 118.225,196.909 116.802,196.053 115.771 C 195.584 115.206,194.452 115.053,194.010 115.495 M184.230 115.900 C 183.707 116.423,184.033 118.641,184.906 120.508 C 187.604 126.275,200.013 133.102,209.407 133.987 C 217.744 134.774,217.400 134.318,204.865 127.968 C 195.114 123.029,189.514 119.746,186.085 116.962 C 185.200 116.243,184.365 115.765,184.230 115.900 M224.080 116.805 C 220.819 117.095,219.409 119.213,220.083 122.808 C 221.549 130.622,232.357 130.301,233.998 122.394 L 234.427 120.328 236.784 121.518 C 240.314 123.299,240.343 121.857,236.824 119.599 C 233.052 117.178,229.252 116.345,224.080 116.805 M166.797 125.192 C 129.492 132.675,108.567 191.387,128.336 233.112 C 156.470 292.495,235.503 295.771,264.222 238.743 C 265.942 235.327,265.984 235.642,263.770 235.353 C 260.094 234.875,258.035 234.241,254.069 232.371 C 248.433 229.712,248.033 229.771,245.695 233.594 C 238.159 245.911,224.405 256.425,216.666 255.783 C 213.436 255.515,211.125 254.123,207.422 250.213 C 200.703 243.119,198.615 241.213,196.278 240.045 C 190.257 237.036,182.590 239.690,180.888 245.373 C 180.325 247.251,180.423 247.412,181.807 246.886 C 184.572 245.835,189.689 246.622,191.857 248.432 L 193.116 249.484 190.337 249.717 C 184.822 250.179,181.641 253.054,181.641 257.575 C 181.641 260.243,182.070 260.536,183.689 258.970 C 188.793 254.033,196.886 256.199,200.574 263.488 C 202.494 267.281,201.811 267.661,192.969 267.728 C 155.555 268.009,124.524 228.149,129.671 186.419 C 133.859 152.462,155.379 127.886,181.174 127.601 L 186.763 127.539 184.690 126.622 C 180.257 124.661,172.527 124.043,166.797 125.192 M187.503 133.128 C 182.838 133.603,186.896 139.471,194.949 143.896 C 199.377 146.328,204.981 148.125,215.820 150.588 C 231.519 154.155,244.135 163.622,250.694 176.758 C 251.791 178.956,252.825 182.022,255.291 190.402 C 257.120 196.614,262.341 198.665,268.921 195.754 L 270.802 194.922 270.600 189.356 C 270.099 175.552,263.023 162.338,251.563 153.805 C 244.985 148.907,239.518 147.031,221.094 143.349 C 203.203 139.773,193.589 136.849,190.437 134.025 C 189.355 133.056,189.068 132.969,187.503 133.128 M225.187 175.912 C 221.685 177.061,220.735 178.493,223.466 178.510 C 225.779 178.523,228.293 179.813,230.826 182.285 C 233.856 185.241,233.746 185.529,230.089 184.210 C 226.565 182.939,223.048 182.848,221.191 183.980 C 219.568 184.970,219.588 185.397,221.273 185.713 C 223.121 186.060,228.538 188.816,229.606 189.952 L 230.476 190.878 227.250 190.852 C 223.527 190.822,221.413 191.672,219.807 193.844 C 218.119 196.127,218.120 196.616,219.812 196.299 C 229.262 194.526,235.249 198.508,243.583 212.109 C 249.319 221.471,254.316 225.583,261.261 226.658 C 276.688 229.046,286.658 212.453,276.751 200.879 L 275.350 199.243 273.315 200.900 C 262.731 209.522,245.121 201.490,244.104 187.578 C 243.624 181.014,241.815 177.083,238.675 175.783 C 237.064 175.115,236.999 175.272,237.681 178.166 C 238.005 179.540,238.268 181.279,238.267 182.031 L 238.264 183.398 237.543 181.810 C 235.371 177.030,229.836 174.387,225.187 175.912 M206.862 226.008 C 203.774 227.139,203.243 228.193,205.431 228.849 C 208.663 229.817,215.588 235.978,215.621 237.914 C 215.623 238.035,214.090 237.620,212.214 236.992 C 210.015 236.257,207.690 235.789,205.671 235.675 L 202.539 235.499 204.297 237.144 C 205.264 238.048,207.285 239.575,208.789 240.537 C 215.516 244.839,215.861 245.261,215.500 248.755 L 215.281 250.881 217.005 250.645 C 222.237 249.928,229.905 245.476,234.883 240.266 C 238.070 236.930,238.631 235.925,236.768 236.889 C 231.706 239.506,226.632 238.274,224.010 233.791 C 219.948 226.846,213.083 223.730,206.862 226.008 " stroke="none" fill="#0d1f33" fill-rule="evenodd"></path><path id="path1" d="M215.820 103.138 C 204.915 104.381,190.696 109.351,185.938 113.584 L 184.180 115.148 184.961 116.017 C 186.752 118.008,195.165 123.061,204.757 127.906 C 217.307 134.245,217.772 134.814,209.715 133.977 C 199.001 132.864,189.844 132.479,189.844 133.143 C 189.844 135.725,202.482 139.767,222.974 143.740 C 228.628 144.835,235.262 146.341,237.716 147.085 C 240.170 147.829,242.602 148.438,243.119 148.438 C 246.072 148.438,253.251 151.681,257.422 154.900 C 271.291 165.604,280.375 186.549,275.948 197.614 L 275.313 199.200 276.745 200.869 C 277.532 201.788,278.706 203.594,279.355 204.883 C 280.004 206.172,280.798 207.721,281.120 208.325 C 283.895 213.525,281.650 224.240,276.635 229.731 C 275.231 231.267,274.221 232.987,272.893 236.097 C 256.478 274.543,213.475 294.952,175.353 282.389 C 170.385 280.751,169.903 281.040,173.438 283.536 C 193.567 297.755,223.570 302.476,251.845 295.875 C 262.126 293.475,278.574 279.075,289.228 263.147 C 321.106 215.486,310.724 151.767,265.596 118.105 C 249.367 105.999,233.248 101.153,215.820 103.138 M231.836 113.257 C 235.436 114.983,238.487 118.422,239.219 121.582 C 239.522 122.890,239.500 122.891,237.146 121.698 C 234.923 120.572,234.214 120.863,233.831 123.057 C 233.300 126.103,230.171 128.516,226.751 128.516 C 221.962 128.516,218.618 123.407,220.484 118.941 C 220.794 118.201,220.897 117.503,220.714 117.389 C 220.342 117.159,215.604 118.090,213.956 118.716 C 212.357 119.324,212.657 118.694,215.038 116.442 C 219.823 111.916,226.426 110.664,231.836 113.257 M196.053 115.771 C 196.903 116.795,195.293 118.486,194.144 117.776 C 193.703 117.503,193.608 115.897,194.010 115.495 C 194.452 115.053,195.584 115.206,196.053 115.771 " stroke="none" fill="#18c49d" fill-rule="evenodd"></path><path id="path2" d="M0.000 200.000 L 0.000 400.000 200.000 400.000 L 400.000 400.000 400.000 200.000 L 400.000 0.000 200.000 0.000 L 0.000 0.000 0.000 200.000 M203.602 91.660 C 206.837 91.965,206.692 92.578,203.385 92.578 C 173.819 92.578,140.658 117.558,125.554 151.207 C 107.461 191.517,113.391 233.155,141.211 261.141 C 182.295 302.471,249.738 289.641,272.674 236.133 C 274.228 232.505,275.122 230.980,276.626 229.390 C 280.901 224.867,283.356 214.927,281.473 209.766 C 280.993 208.449,280.968 208.531,280.799 211.964 C 280.054 227.113,260.997 232.394,249.536 220.628 C 247.490 218.527,245.417 215.564,241.391 208.984 C 235.173 198.824,226.252 193.930,219.011 196.709 C 217.963 197.111,218.210 195.636,219.484 193.877 C 221.101 191.644,223.873 190.525,227.367 190.692 L 230.034 190.820 229.241 189.978 C 228.134 188.802,224.455 186.912,221.756 186.134 C 219.232 185.405,219.116 184.973,221.125 183.793 C 222.989 182.698,227.127 182.776,230.203 183.964 C 233.133 185.096,233.298 184.840,231.071 182.613 C 228.896 180.438,225.788 178.931,222.850 178.628 C 220.304 178.365,220.438 177.935,223.546 176.386 C 228.198 174.068,233.805 175.607,236.716 180.001 C 238.138 182.148,238.372 181.059,237.278 177.376 C 236.521 174.826,236.638 174.702,238.815 175.756 C 242.208 177.398,243.662 180.360,244.141 186.600 C 244.585 192.385,245.247 193.818,249.346 197.862 C 257.308 205.717,266.736 206.706,273.575 200.402 C 284.428 190.398,268.124 157.424,248.777 150.249 C 244.626 148.710,243.651 148.650,246.289 150.096 C 260.990 158.156,271.085 175.005,271.092 191.496 L 271.094 194.906 269.629 195.650 C 264.634 198.187,258.048 197.277,256.280 193.806 C 255.881 193.023,254.922 190.098,254.149 187.305 C 248.350 166.338,236.344 155.557,212.677 150.063 C 197.201 146.471,186.679 140.780,185.292 135.252 C 184.678 132.808,192.629 131.728,201.758 133.015 C 202.443 133.112,201.300 132.401,199.010 131.305 C 184.276 124.255,179.831 117.373,186.879 112.524 C 196.611 105.828,216.022 101.318,229.244 102.681 C 263.981 106.261,297.699 140.767,305.637 180.859 C 323.028 268.694,234.149 338.708,154.883 299.615 C 92.360 268.780,75.485 187.012,120.196 131.538 C 137.860 109.621,164.088 93.575,185.352 91.677 C 188.223 91.421,200.943 91.409,203.602 91.660 M222.538 112.514 C 219.798 113.202,217.007 114.795,215.039 116.796 L 213.086 118.783 214.774 118.188 C 221.844 115.697,231.717 116.132,236.467 119.145 C 238.490 120.428,238.731 120.152,237.354 118.126 C 234.253 113.562,227.922 111.164,222.538 112.514 M181.102 125.141 C 182.203 125.440,184.048 126.131,185.204 126.677 L 187.305 127.669 182.571 127.702 C 163.432 127.833,147.679 139.108,137.496 159.961 C 117.312 201.298,136.175 251.523,176.953 265.016 C 186.648 268.224,202.204 268.779,201.343 265.887 C 198.701 257.008,188.151 253.369,183.220 259.637 C 182.216 260.914,181.667 260.516,181.369 258.296 C 180.735 253.571,184.930 249.633,190.625 249.605 L 193.164 249.592 192.188 248.809 C 189.675 246.793,185.068 245.958,182.129 246.985 C 178.052 248.409,181.453 241.922,185.988 239.622 C 191.705 236.723,197.899 239.189,204.645 247.048 C 210.671 254.066,213.193 255.628,218.128 255.394 C 226.082 255.018,238.970 244.715,245.448 233.553 C 247.697 229.677,248.601 229.555,254.534 232.325 C 258.866 234.347,261.707 235.156,264.472 235.156 C 266.374 235.156,266.402 234.863,264.073 239.389 C 242.027 282.243,187.223 293.208,150.274 262.159 C 123.316 239.505,113.663 203.537,125.163 168.590 C 135.005 138.681,159.857 119.377,181.102 125.141 M216.657 226.193 C 219.074 227.355,222.520 230.785,224.247 233.748 C 226.070 236.876,227.170 237.626,230.180 237.797 C 232.355 237.919,233.641 237.690,237.447 236.502 C 238.925 236.040,237.883 237.595,234.407 241.039 C 229.530 245.870,224.199 249.023,218.246 250.596 C 215.104 251.426,214.719 251.211,215.294 248.945 C 215.950 246.358,214.963 244.788,211.133 242.331 C 207.038 239.703,202.344 236.048,202.344 235.486 C 202.344 234.732,207.823 235.425,211.684 236.666 L 215.207 237.799 214.649 236.720 C 213.018 233.566,207.934 229.540,204.590 228.753 C 203.194 228.425,203.234 227.988,204.761 226.901 C 207.670 224.829,213.144 224.503,216.657 226.193 " stroke="none" fill="#fbfbfb" fill-rule="evenodd"></path><path id="path3" d="M204.492 92.188 L 202.930 92.467 204.371 92.523 C 205.164 92.553,205.922 92.402,206.055 92.188 C 206.187 91.973,206.242 91.822,206.175 91.852 C 206.109 91.883,205.352 92.034,204.492 92.188 M222.168 102.632 C 223.296 102.711,225.142 102.711,226.270 102.632 C 227.397 102.553,226.475 102.488,224.219 102.488 C 221.963 102.488,221.040 102.553,222.168 102.632 M216.309 103.010 C 216.792 103.103,217.583 103.103,218.066 103.010 C 218.550 102.917,218.154 102.841,217.188 102.841 C 216.221 102.841,215.825 102.917,216.309 103.010 M229.594 103.011 C 230.080 103.104,230.783 103.101,231.157 103.003 C 231.530 102.905,231.133 102.829,230.273 102.833 C 229.414 102.837,229.108 102.917,229.594 103.011 M251.986 109.521 C 252.388 109.880,254.688 110.937,254.688 110.762 C 254.688 110.537,252.522 109.375,252.103 109.375 C 251.949 109.375,251.896 109.441,251.986 109.521 M225.688 111.995 C 226.174 112.088,226.877 112.085,227.251 111.987 C 227.624 111.889,227.227 111.813,226.367 111.817 C 225.508 111.822,225.202 111.902,225.688 111.995 M214.657 116.788 C 213.604 117.857,212.864 118.853,213.012 119.001 C 213.160 119.150,213.281 119.071,213.281 118.827 C 213.281 118.583,213.501 118.437,213.770 118.503 C 214.038 118.568,214.109 118.543,213.928 118.446 C 213.746 118.349,214.354 117.499,215.278 116.557 C 216.203 115.615,216.872 114.844,216.766 114.844 C 216.659 114.844,215.710 115.719,214.657 116.788 M147.827 118.457 L 146.680 119.727 147.949 118.579 C 149.133 117.510,149.398 117.188,149.097 117.188 C 149.029 117.188,148.458 117.759,147.827 118.457 M128.502 122.168 L 126.367 124.414 128.613 122.279 C 130.700 120.295,131.038 119.922,130.748 119.922 C 130.687 119.922,129.677 120.933,128.502 122.168 M271.289 122.656 C 272.128 123.516,272.903 124.219,273.010 124.219 C 273.118 124.219,272.519 123.516,271.680 122.656 C 270.841 121.797,270.066 121.094,269.959 121.094 C 269.851 121.094,270.450 121.797,271.289 122.656 M276.758 127.734 C 278.466 129.453,279.952 130.859,280.060 130.859 C 280.167 130.859,278.857 129.453,277.148 127.734 C 275.440 126.016,273.954 124.609,273.846 124.609 C 273.739 124.609,275.049 126.016,276.758 127.734 M181.934 127.619 C 182.417 127.713,183.208 127.713,183.691 127.619 C 184.175 127.526,183.779 127.450,182.813 127.450 C 181.846 127.450,181.450 127.526,181.934 127.619 M191.504 132.702 C 192.095 132.791,193.062 132.791,193.652 132.702 C 194.243 132.612,193.760 132.539,192.578 132.539 C 191.396 132.539,190.913 132.612,191.504 132.702 M199.322 133.093 C 199.916 133.183,200.794 133.180,201.275 133.087 C 201.755 132.995,201.270 132.921,200.195 132.924 C 199.121 132.927,198.728 133.003,199.322 133.093 M151.343 140.332 L 150.195 141.602 151.465 140.454 C 152.163 139.823,152.734 139.252,152.734 139.185 C 152.734 138.883,152.412 139.149,151.343 140.332 M242.578 148.587 C 242.578 148.934,244.158 149.115,244.359 148.791 C 244.479 148.597,244.128 148.438,243.578 148.438 C 243.028 148.438,242.578 148.505,242.578 148.587 M237.773 181.383 C 237.663 181.671,237.729 182.155,237.921 182.457 C 238.174 182.858,238.271 182.715,238.275 181.934 C 238.282 180.767,238.090 180.557,237.773 181.383 M307.122 191.797 C 307.122 192.549,307.202 192.856,307.301 192.480 C 307.399 192.104,307.399 191.489,307.301 191.113 C 307.202 190.737,307.122 191.045,307.122 191.797 M307.547 196.094 C 307.547 197.490,307.618 198.062,307.704 197.363 C 307.791 196.665,307.791 195.522,307.704 194.824 C 307.618 194.126,307.547 194.697,307.547 196.094 M262.402 197.151 C 262.886 197.244,263.677 197.244,264.160 197.151 C 264.644 197.058,264.248 196.981,263.281 196.981 C 262.314 196.981,261.919 197.058,262.402 197.151 M280.469 208.203 C 280.469 208.932,280.573 209.036,280.938 208.672 C 281.302 208.307,281.302 208.099,280.938 207.734 C 280.573 207.370,280.469 207.474,280.469 208.203 M307.539 210.156 C 307.539 211.338,307.612 211.821,307.702 211.230 C 307.791 210.640,307.791 209.673,307.702 209.082 C 307.612 208.491,307.539 208.975,307.539 210.156 M307.130 214.258 C 307.134 215.117,307.214 215.423,307.308 214.937 C 307.401 214.451,307.397 213.748,307.300 213.374 C 307.202 213.001,307.125 213.398,307.130 214.258 M282.138 214.844 C 282.138 215.811,282.214 216.206,282.307 215.723 C 282.400 215.239,282.400 214.448,282.307 213.965 C 282.214 213.481,282.138 213.877,282.138 214.844 M275.958 230.176 L 274.414 231.836 276.074 230.292 C 277.618 228.856,277.914 228.516,277.618 228.516 C 277.555 228.516,276.807 229.263,275.958 230.176 M202.344 235.414 C 202.344 235.627,202.827 236.227,203.418 236.748 L 204.492 237.695 203.516 236.523 C 202.979 235.879,202.495 235.278,202.441 235.189 C 202.388 235.099,202.344 235.200,202.344 235.414 M200.781 243.091 C 200.781 243.158,201.353 243.729,202.051 244.361 L 203.320 245.508 202.173 244.238 C 201.104 243.055,200.781 242.789,200.781 243.091 M216.699 255.744 C 217.183 255.838,217.974 255.838,218.457 255.744 C 218.940 255.651,218.545 255.575,217.578 255.575 C 216.611 255.575,216.216 255.651,216.699 255.744 M196.484 258.716 C 196.484 258.783,197.056 259.354,197.754 259.986 L 199.023 261.133 197.876 259.863 C 196.807 258.680,196.484 258.414,196.484 258.716 M256.620 260.840 L 255.273 262.305 256.738 260.959 C 258.102 259.706,258.383 259.375,258.084 259.375 C 258.019 259.375,257.360 260.034,256.620 260.840 M253.302 264.160 L 251.758 265.820 253.418 264.276 C 254.962 262.840,255.258 262.500,254.962 262.500 C 254.898 262.500,254.151 263.247,253.302 264.160 M275.968 279.395 L 272.461 283.008 276.074 279.500 C 278.062 277.571,279.688 275.945,279.688 275.887 C 279.688 275.603,279.226 276.039,275.968 279.395 M126.758 279.688 C 127.816 280.762,128.769 281.641,128.877 281.641 C 128.984 281.641,128.207 280.762,127.148 279.688 C 126.090 278.613,125.137 277.734,125.029 277.734 C 124.922 277.734,125.700 278.613,126.758 279.688 M196.191 279.975 C 197.212 280.055,198.882 280.055,199.902 279.975 C 200.923 279.894,200.088 279.828,198.047 279.828 C 196.006 279.828,195.171 279.894,196.191 279.975 M270.489 284.473 L 268.945 286.133 270.605 284.589 C 271.519 283.739,272.266 282.992,272.266 282.929 C 272.266 282.633,271.925 282.929,270.489 284.473 M195.428 285.838 C 197.103 285.911,199.740 285.911,201.287 285.837 C 202.835 285.763,201.465 285.703,198.242 285.703 C 195.020 285.704,193.753 285.764,195.428 285.838 " stroke="none" fill="#9abdbe" fill-rule="evenodd"></path><path id="path4" d="M187.988 91.676 C 188.364 91.774,188.979 91.774,189.355 91.676 C 189.731 91.577,189.424 91.497,188.672 91.497 C 187.920 91.497,187.612 91.577,187.988 91.676 M227.051 116.676 C 227.427 116.774,228.042 116.774,228.418 116.676 C 228.794 116.577,228.486 116.497,227.734 116.497 C 226.982 116.497,226.675 116.577,227.051 116.676 M145.483 120.801 L 144.336 122.070 145.605 120.923 C 146.789 119.854,147.055 119.531,146.753 119.531 C 146.686 119.531,146.114 120.103,145.483 120.801 M172.759 124.499 C 173.353 124.589,174.232 124.586,174.712 124.494 C 175.193 124.401,174.707 124.328,173.633 124.330 C 172.559 124.333,172.166 124.409,172.759 124.499 M179.204 127.620 C 179.690 127.713,180.393 127.710,180.766 127.612 C 181.140 127.514,180.742 127.438,179.883 127.442 C 179.023 127.447,178.718 127.527,179.204 127.620 M241.016 163.794 C 241.016 163.861,241.587 164.433,242.285 165.064 L 243.555 166.211 242.407 164.941 C 241.338 163.758,241.016 163.492,241.016 163.794 M270.840 191.406 C 270.840 193.232,270.907 193.979,270.989 193.066 C 271.071 192.153,271.071 190.659,270.989 189.746 C 270.907 188.833,270.840 189.580,270.840 191.406 M120.464 197.852 C 120.465 200.645,120.527 201.736,120.603 200.277 C 120.678 198.818,120.677 196.532,120.601 195.199 C 120.525 193.865,120.464 195.059,120.464 197.852 M114.985 197.266 C 114.985 199.307,115.050 200.142,115.131 199.121 C 115.211 198.101,115.211 196.431,115.131 195.410 C 115.050 194.390,114.985 195.225,114.985 197.266 M248.421 197.363 C 249.379 198.384,250.214 199.219,250.277 199.219 C 250.570 199.219,250.260 198.868,248.535 197.249 L 246.680 195.508 248.421 197.363 M95.013 198.047 C 95.013 198.799,95.093 199.106,95.191 198.730 C 95.289 198.354,95.289 197.739,95.191 197.363 C 95.093 196.987,95.013 197.295,95.013 198.047 M235.938 201.758 C 236.666 202.510,237.351 203.125,237.458 203.125 C 237.565 203.125,237.057 202.510,236.328 201.758 C 235.599 201.006,234.915 200.391,234.808 200.391 C 234.700 200.391,235.209 201.006,235.938 201.758 M210.650 225.280 C 211.244 225.370,212.123 225.368,212.603 225.275 C 213.083 225.182,212.598 225.109,211.523 225.112 C 210.449 225.115,210.056 225.191,210.650 225.280 M219.531 228.247 C 219.531 228.314,220.103 228.886,220.801 229.517 L 222.070 230.664 220.923 229.395 C 219.854 228.211,219.531 227.945,219.531 228.247 M203.423 235.433 C 203.908 235.526,204.612 235.522,204.985 235.425 C 205.358 235.327,204.961 235.250,204.102 235.255 C 203.242 235.259,202.937 235.339,203.423 235.433 M148.438 246.680 C 149.166 247.432,149.851 248.047,149.958 248.047 C 150.065 248.047,149.557 247.432,148.828 246.680 C 148.099 245.928,147.415 245.313,147.308 245.313 C 147.200 245.313,147.709 245.928,148.438 246.680 M208.008 251.172 C 208.847 252.031,209.621 252.734,209.729 252.734 C 209.836 252.734,209.238 252.031,208.398 251.172 C 207.559 250.312,206.785 249.609,206.677 249.609 C 206.570 249.609,207.169 250.312,208.008 251.172 M181.341 257.422 C 181.341 258.174,181.421 258.481,181.519 258.105 C 181.618 257.729,181.618 257.114,181.519 256.738 C 181.421 256.362,181.341 256.670,181.341 257.422 M169.666 280.776 C 170.099 281.264,170.636 281.492,171.013 281.347 C 171.533 281.148,171.543 281.076,171.074 280.930 C 170.763 280.833,170.156 280.576,169.727 280.359 C 168.963 279.973,168.961 279.983,169.666 280.776 M196.197 310.437 C 196.791 310.526,197.669 310.524,198.150 310.431 C 198.630 310.339,198.145 310.265,197.070 310.268 C 195.996 310.271,195.603 310.347,196.197 310.437 M205.376 310.433 C 205.862 310.526,206.565 310.522,206.938 310.425 C 207.312 310.327,206.914 310.250,206.055 310.255 C 205.195 310.259,204.890 310.339,205.376 310.433 " stroke="none" fill="#7c848c" fill-rule="evenodd"></path></g></svg>